<?xml version="1.0" encoding="utf-8"?>

<svg version="1.1" xmlns="http://www.w3.org/2000/svg" xmlns:xlink="http://www.w3.org/1999/xlink" x="0px"
    y="0px" viewBox="0 10 300 170" style="enable-background:new 0 0 100 100;" >


    <g>
        <g>
            <g>
                <linearGradient id="SVGID_00000049938253583559625770000006850108505322572966_"
                    gradientUnits="userSpaceOnUse" x1="63.8493" y1="80.6778" x2="87.2513" y2="182.9529"
                    gradientTransform="matrix(-1 0 0 1 229.591 0)">
                    <stop offset="0" style="stop-color:#322F5D" />
                    <stop offset="0.5653" style="stop-color:#597BF7" />
                </linearGradient>
                <path style="fill:url(#SVGID_00000049938253583559625770000006850108505322572966_);"
                    d="M77.475,167.407l52.063-101.862
					c1.367-2.675,4.118-4.358,7.122-4.358h16.559c2.998,0,5.745,1.677,7.114,4.344l23.688,46.122h-34.143l-4.871-10.744h-0.291
					l-10.501,23.451c-0.903,0.904-0.264,2.448,1.014,2.448h19.382c0.462-0.044,20.695-0.036,37.183-0.022l20.854,40.606
					c2.733,5.322-1.131,11.652-7.114,11.652h-17.475c-3.022,0-5.787-1.704-7.145-4.404l-9.637-19.159
					c-0.002-0.005-0.005-0.009-0.007-0.013c-1.118-2.223-3.384-3.632-5.873-3.632h-40.785c-2.477,0-4.738,1.393-5.858,3.603
					c-0.007,0.014-0.015,0.029-0.023,0.045l-9.768,19.191c-1.365,2.681-4.119,4.37-7.128,4.37H84.597
					C78.621,179.044,74.756,172.728,77.475,167.407z" />
            </g>
            <g>
                <g>

                    <linearGradient id="SVGID_00000031907166562720549630000011536542595536041632_"
                        gradientUnits="userSpaceOnUse" x1="132.0218" y1="156.2091" x2="122.3703" y2="189.386"
                        gradientTransform="matrix(-1 0 0 1 229.591 0)">
                        <stop offset="0" style="stop-color:#322F5D" />
                        <stop offset="0.5653" style="stop-color:#597BF7" />
                    </linearGradient>
                    <path style="fill:url(#SVGID_00000031907166562720549630000011536542595536041632_);"
                        d="M84.791,153.094l-7.316,14.313
						c-2.72,5.322,1.145,11.638,7.122,11.638h17.239c3.009,0,5.763-1.689,7.128-4.37l9.768-19.191
						c0.008-0.016,0.016-0.031,0.023-0.045c0.717-1.416,1.906-2.49,3.316-3.083C116.861,151.508,100.613,149.428,84.791,153.094z" />
                </g>
            </g>
            <g>
                <g>

                    <linearGradient id="SVGID_00000098915414172407869420000009354401406795097509_"
                        gradientUnits="userSpaceOnUse" x1="104.5969" y1="156.2091" x2="94.9455" y2="189.386"
                        gradientTransform="matrix(1 0 0 1 87.9629 0)">
                        <stop offset="0" style="stop-color:#322F5D" />
                        <stop offset="0.5653" style="stop-color:#597BF7" />
                    </linearGradient>
                    <path style="fill:url(#SVGID_00000098915414172407869420000009354401406795097509_);"
                        d="M205.338,153.094l7.315,14.313
						c2.72,5.322-1.145,11.638-7.121,11.638h-17.239c-3.009,0-5.763-1.689-7.128-4.37l-9.768-19.191
						c-0.008-0.016-0.016-0.031-0.023-0.045c-0.717-1.416-1.906-2.49-3.316-3.083C173.268,151.508,189.516,149.428,205.338,153.094z
						" />
                </g>
            </g>
        </g>
        <g>
        </g>
    </g>
</svg>
